<svg xmlns="http://www.w3.org/2000/svg" xmlns:xlink="http://www.w3.org/1999/xlink" xmlns:lucid="lucid" width="1380" height="440"><g transform="translate(-160 0)" lucid:page-tab-id="0_0"><path d="M180 100h144v102c-24.05-17.03-39.02-17.03-48.1-17.03-14.4 0-33.55 17.03-47.95 17.03-8.93 0-24.05 0-47.95-17.03z" stroke="#a9a9b3" stroke-width="2" fill-opacity="0"/><path d="M188 109h144v102c-24.05-17.03-39.02-17.03-48.1-17.03-14.4 0-33.55 17.03-47.95 17.03-8.93 0-24.05 0-47.95-17.03z" stroke="#a9a9b3" stroke-width="2" fill-opacity="0"/><path d="M196 118h144v102c-24.05-17.03-39.02-17.03-48.1-17.03-14.4 0-33.55 17.03-47.95 17.03-8.93 0-24.05 0-47.95-17.03z" stroke="#a9a9b3" stroke-width="2" fill-opacity="0"/><use xlink:href="#a" transform="matrix(1,0,0,1,201,123) translate(48.5 40.18125)"/><path d="M180 300h144v102c-24.05-17.03-39.02-17.03-48.1-17.03-14.4 0-33.55 17.03-47.95 17.03-8.93 0-24.05 0-47.95-17.03z" stroke="#a9a9b3" stroke-width="2" fill-opacity="0"/><path d="M188 309h144v102c-24.05-17.03-39.02-17.03-48.1-17.03-14.4 0-33.55 17.03-47.95 17.03-8.93 0-24.05 0-47.95-17.03z" stroke="#a9a9b3" stroke-width="2" fill-opacity="0"/><path d="M196 318h144v102c-24.05-17.03-39.02-17.03-48.1-17.03-14.4 0-33.55 17.03-47.95 17.03-8.93 0-24.05 0-47.95-17.03z" stroke="#a9a9b3" stroke-width="2" fill-opacity="0"/><use xlink:href="#b" transform="matrix(1,0,0,1,201,323) translate(39.025 40.18125)"/><path d="M500 100h160v120H500z" stroke="#a9a9b3" stroke-width="2" fill-opacity="0"/><use xlink:href="#c" transform="matrix(1,0,0,1,505,105) translate(14.174999999999997 59.0875)"/><use xlink:href="#d" transform="matrix(1,0,0,1,505,105) translate(64.07499999999999 59.0875)"/><path d="M500 300h160v120H500z" stroke="#a9a9b3" stroke-width="2" fill-opacity="0"/><use xlink:href="#e" transform="matrix(1,0,0,1,505,305) translate(17.624999999999993 59.0875)"/><use xlink:href="#d" transform="matrix(1,0,0,1,505,305) translate(60.62499999999999 59.0875)"/><path d="M340 140h124v-20l36 40-36 40v-20H340zM340 340h124v-20l36 40-36 40v-20H340zM940 308c0 6.63-26.86 12-60 12s-60-5.37-60-12v-96c0-6.63 26.86-12 60-12s60 5.37 60 12z" stroke="#a9a9b3" stroke-width="2" fill-opacity="0"/><path d="M940 212c0 6.63-26.86 12-60 12s-60-5.37-60-12" stroke="#a9a9b3" stroke-width="2" fill="none"/><use xlink:href="#f" transform="matrix(1,0,0,1,825,229) translate(32.025 46.65)"/><path d="M661.84 160.53l141.53 89.58M661.87 160.55L661 160" stroke="#a9a9b3" stroke-width="2" fill="none"/><path d="M816.27 258.27l-14.54-3.7 4.96-7.85z" stroke="#a9a9b3" stroke-width="2" fill="#a9a9b3"/><path d="M661.84 359.47l141.53-89.58M661.87 359.45l-.87.55" stroke="#a9a9b3" stroke-width="2" fill="none"/><path d="M816.27 261.73l-9.58 11.55-4.97-7.84z" stroke="#a9a9b3" stroke-width="2" fill="#a9a9b3"/><path d="M940 240h124v-20l36 40-36 40v-20H940zM1220 308c0 6.63-26.86 12-60 12s-60-5.37-60-12v-96c0-6.63 26.86-12 60-12s60 5.37 60 12z" stroke="#a9a9b3" stroke-width="2" fill-opacity="0"/><path d="M1220 212c0 6.63-26.86 12-60 12s-60-5.37-60-12" stroke="#a9a9b3" stroke-width="2" fill="none"/><use xlink:href="#g" transform="matrix(1,0,0,1,1105,229) translate(42.55 46.65)"/><path d="M1488 220c17.67 0 32 17.9 32 40s-14.33 40-32 40h-96c-17.67 0-32-17.9-32-40s14.33-40 32-40z" stroke="#a9a9b3" stroke-width="2" fill-opacity="0"/><use xlink:href="#h" transform="matrix(1,0,0,1,1365,225) translate(31.074999999999996 38.4625)"/><path d="M1220 128c0 6.63-26.86 12-60 12s-60-5.37-60-12V32c0-6.63 26.86-12 60-12s60 5.37 60 12z" stroke="#a9a9b3" stroke-width="2" fill-opacity="0"/><path d="M1220 32c0 6.63-26.86 12-60 12s-60-5.37-60-12" stroke="#a9a9b3" stroke-width="2" fill="none"/><use xlink:href="#i" transform="matrix(1,0,0,1,1105,49) translate(32.55 35.9)"/><use xlink:href="#j" transform="matrix(1,0,0,1,1105,49) translate(21.574999999999996 57.5)"/><path d="M1222 260h118.5" stroke="#a9a9b3" stroke-width="2" fill="none"/><path d="M1222.03 261H1221v-2h1.03z" fill="#a9a9b3"/><path d="M1355.76 260l-14.26 4.64v-9.28z" stroke="#a9a9b3" stroke-width="2" fill="#a9a9b3"/><path d="M1160.86 141.5l182.26 109" stroke="#a9a9b3" stroke-width="2" fill="none"/><path d="M1160 141l1.22-.04-.85 1.43-2.46-1.48z" fill="#a9a9b3"/><path d="M1356.22 258.34L1341.6 255l4.76-7.96z" stroke="#a9a9b3" stroke-width="2" fill="#a9a9b3"/><defs><path fill="#a9a9b3" d="M80-196l47-18 7 23-49 13 32 44-20 13-27-46-27 45-21-12 33-44-49-13 8-23 47 19-2-53h23" id="k"/><path fill="#a9a9b3" d="M33 0v-38h34V0H33" id="l"/><path fill="#a9a9b3" d="M143 0L79-87 56-68V0H24v-261h32v163l83-92h37l-77 82L181 0h-38" id="m"/><path fill="#a9a9b3" d="M59-47c-2 24 18 29 38 22v24C64 9 27 4 27-40v-127H5v-23h24l9-43h21v43h35v23H59v120" id="n"/><g id="a"><use transform="matrix(0.05,0,0,0.05,0,0)" xlink:href="#k"/><use transform="matrix(0.05,0,0,0.05,7,0)" xlink:href="#l"/><use transform="matrix(0.05,0,0,0.05,12,0)" xlink:href="#m"/><use transform="matrix(0.05,0,0,0.05,21,0)" xlink:href="#n"/></g><path fill="#a9a9b3" d="M24-231v-30h32v30H24zM-9 49c24 4 33-6 33-30v-209h32V24c2 40-23 58-65 49V49" id="o"/><path fill="#a9a9b3" d="M141-36C126-15 110 5 73 4 37 3 15-17 15-53c-1-64 63-63 125-63 3-35-9-54-41-54-24 1-41 7-42 31l-33-3c5-37 33-52 76-52 45 0 72 20 72 64v82c-1 20 7 32 28 27v20c-31 9-61-2-59-35zM48-53c0 20 12 33 32 33 41-3 63-29 60-74-43 2-92-5-92 41" id="p"/><path fill="#a9a9b3" d="M108 0H70L1-190h34L89-25l56-165h34" id="q"/><g id="b"><use transform="matrix(0.05,0,0,0.05,0,0)" xlink:href="#k"/><use transform="matrix(0.05,0,0,0.05,7,0)" xlink:href="#l"/><use transform="matrix(0.05,0,0,0.05,12,0)" xlink:href="#o"/><use transform="matrix(0.05,0,0,0.05,15.949999999999998,0)" xlink:href="#p"/><use transform="matrix(0.05,0,0,0.05,25.950000000000003,0)" xlink:href="#q"/><use transform="matrix(0.05,0,0,0.05,34.95,0)" xlink:href="#p"/></g><path fill="#a9a9b3" d="M194 0L95-120 63-95V0H30v-248h33v124l119-124h40L117-140 236 0h-42" id="r"/><path fill="#a9a9b3" d="M100-194c62-1 85 37 85 99 1 63-27 99-86 99S16-35 15-95c0-66 28-99 85-99zM99-20c44 1 53-31 53-75 0-43-8-75-51-75s-53 32-53 75 10 74 51 75" id="s"/><path fill="#a9a9b3" d="M24 0v-261h32V0H24" id="t"/><path fill="#a9a9b3" d="M24-231v-30h32v30H24zM24 0v-190h32V0H24" id="u"/><path fill="#a9a9b3" d="M117-194c89-4 53 116 60 194h-32v-121c0-31-8-49-39-48C34-167 62-67 57 0H25l-1-190h30c1 10-1 24 2 32 11-22 29-35 61-36" id="v"/><g id="c"><use transform="matrix(0.05,0,0,0.05,0,0)" xlink:href="#r"/><use transform="matrix(0.05,0,0,0.05,12,0)" xlink:href="#s"/><use transform="matrix(0.05,0,0,0.05,22,0)" xlink:href="#n"/><use transform="matrix(0.05,0,0,0.05,27,0)" xlink:href="#t"/><use transform="matrix(0.05,0,0,0.05,30.950000000000003,0)" xlink:href="#u"/><use transform="matrix(0.05,0,0,0.05,34.9,0)" xlink:href="#v"/></g><path fill="#a9a9b3" d="M212-179c-10-28-35-45-73-45-59 0-87 40-87 99 0 60 29 101 89 101 43 0 62-24 78-52l27 14C228-24 195 4 139 4 59 4 22-46 18-125c-6-104 99-153 187-111 19 9 31 26 39 46" id="w"/><path fill="#a9a9b3" d="M210-169c-67 3-38 105-44 169h-31v-121c0-29-5-50-35-48C34-165 62-65 56 0H25l-1-190h30c1 10-1 24 2 32 10-44 99-50 107 0 11-21 27-35 58-36 85-2 47 119 55 194h-31v-121c0-29-5-49-35-48" id="x"/><path fill="#a9a9b3" d="M115-194c55 1 70 41 70 98S169 2 115 4C84 4 66-9 55-30l1 105H24l-1-265h31l2 30c10-21 28-34 59-34zm-8 174c40 0 45-34 45-75s-6-73-45-74c-42 0-51 32-51 76 0 43 10 73 51 73" id="y"/><path fill="#a9a9b3" d="M100-194c63 0 86 42 84 106H49c0 40 14 67 53 68 26 1 43-12 49-29l28 8c-11 28-37 45-77 45C44 4 14-33 15-96c1-61 26-98 85-98zm52 81c6-60-76-77-97-28-3 7-6 17-6 28h103" id="z"/><path fill="#a9a9b3" d="M114-163C36-179 61-72 57 0H25l-1-190h30c1 12-1 29 2 39 6-27 23-49 58-41v29" id="A"/><g id="d"><use transform="matrix(0.05,0,0,0.05,0,0)" xlink:href="#w"/><use transform="matrix(0.05,0,0,0.05,12.950000000000001,0)" xlink:href="#s"/><use transform="matrix(0.05,0,0,0.05,22.950000000000003,0)" xlink:href="#x"/><use transform="matrix(0.05,0,0,0.05,37.900000000000006,0)" xlink:href="#y"/><use transform="matrix(0.05,0,0,0.05,47.900000000000006,0)" xlink:href="#u"/><use transform="matrix(0.05,0,0,0.05,51.85,0)" xlink:href="#t"/><use transform="matrix(0.05,0,0,0.05,55.80000000000001,0)" xlink:href="#z"/><use transform="matrix(0.05,0,0,0.05,65.80000000000001,0)" xlink:href="#A"/></g><path fill="#a9a9b3" d="M153-248C145-148 188 4 80 4 36 3 13-21 6-62l32-5c4 25 16 42 43 43 27 0 39-20 39-49v-147H72v-28h81" id="B"/><g id="e"><use transform="matrix(0.05,0,0,0.05,0,0)" xlink:href="#B"/><use transform="matrix(0.05,0,0,0.05,9,0)" xlink:href="#p"/><use transform="matrix(0.05,0,0,0.05,19,0)" xlink:href="#q"/><use transform="matrix(0.05,0,0,0.05,28,0)" xlink:href="#p"/></g><path fill="#a9a9b3" d="M96-169c-40 0-48 33-48 73s9 75 48 75c24 0 41-14 43-38l32 2c-6 37-31 61-74 61-59 0-76-41-82-99-10-93 101-131 147-64 4 7 5 14 7 22l-32 3c-4-21-16-35-41-35" id="C"/><path fill="#a9a9b3" d="M135-143c-3-34-86-38-87 0 15 53 115 12 119 90S17 21 10-45l28-5c4 36 97 45 98 0-10-56-113-15-118-90-4-57 82-63 122-42 12 7 21 19 24 35" id="D"/><g id="f"><use transform="matrix(0.05,0,0,0.05,0,0)" xlink:href="#l"/><use transform="matrix(0.05,0,0,0.05,5,0)" xlink:href="#C"/><use transform="matrix(0.05,0,0,0.05,14,0)" xlink:href="#t"/><use transform="matrix(0.05,0,0,0.05,17.95,0)" xlink:href="#p"/><use transform="matrix(0.05,0,0,0.05,27.950000000000003,0)" xlink:href="#D"/><use transform="matrix(0.05,0,0,0.05,36.95,0)" xlink:href="#D"/></g><g id="g"><use transform="matrix(0.05,0,0,0.05,0,0)" xlink:href="#l"/><use transform="matrix(0.05,0,0,0.05,5,0)" xlink:href="#o"/><use transform="matrix(0.05,0,0,0.05,8.95,0)" xlink:href="#p"/><use transform="matrix(0.05,0,0,0.05,18.95,0)" xlink:href="#A"/></g><path fill="#a9a9b3" d="M205 0l-28-72H64L36 0H1l101-248h38L239 0h-34zm-38-99l-47-123c-12 45-31 82-46 123h93" id="E"/><g id="h"><use transform="matrix(0.05,0,0,0.05,0,0)" xlink:href="#E"/><use transform="matrix(0.05,0,0,0.05,12,0)" xlink:href="#y"/><use transform="matrix(0.05,0,0,0.05,22,0)" xlink:href="#y"/><use transform="matrix(0.05,0,0,0.05,32,0)" xlink:href="#t"/><use transform="matrix(0.05,0,0,0.05,35.95,0)" xlink:href="#u"/><use transform="matrix(0.05,0,0,0.05,39.900000000000006,0)" xlink:href="#C"/><use transform="matrix(0.05,0,0,0.05,48.900000000000006,0)" xlink:href="#p"/><use transform="matrix(0.05,0,0,0.05,58.900000000000006,0)" xlink:href="#n"/><use transform="matrix(0.05,0,0,0.05,63.900000000000006,0)" xlink:href="#u"/><use transform="matrix(0.05,0,0,0.05,67.85000000000001,0)" xlink:href="#s"/><use transform="matrix(0.05,0,0,0.05,77.85000000000001,0)" xlink:href="#v"/></g><g id="i"><use transform="matrix(0.05,0,0,0.05,0,0)" xlink:href="#r"/><use transform="matrix(0.05,0,0,0.05,12,0)" xlink:href="#s"/><use transform="matrix(0.05,0,0,0.05,22,0)" xlink:href="#n"/><use transform="matrix(0.05,0,0,0.05,27,0)" xlink:href="#t"/><use transform="matrix(0.05,0,0,0.05,30.950000000000003,0)" xlink:href="#u"/><use transform="matrix(0.05,0,0,0.05,34.9,0)" xlink:href="#v"/></g><path fill="#a9a9b3" d="M233-177c-1 41-23 64-60 70L243 0h-38l-65-103H63V0H30v-248c88 3 205-21 203 71zM63-129c60-2 137 13 137-47 0-61-80-42-137-45v92" id="F"/><path fill="#a9a9b3" d="M84 4C-5 8 30-112 23-190h32v120c0 31 7 50 39 49 72-2 45-101 50-169h31l1 190h-30c-1-10 1-25-2-33-11 22-28 36-60 37" id="G"/><g id="j"><use transform="matrix(0.05,0,0,0.05,0,0)" xlink:href="#F"/><use transform="matrix(0.05,0,0,0.05,12.950000000000001,0)" xlink:href="#G"/><use transform="matrix(0.05,0,0,0.05,22.950000000000003,0)" xlink:href="#v"/><use transform="matrix(0.05,0,0,0.05,32.95,0)" xlink:href="#n"/><use transform="matrix(0.05,0,0,0.05,37.95,0)" xlink:href="#u"/><use transform="matrix(0.05,0,0,0.05,41.900000000000006,0)" xlink:href="#x"/><use transform="matrix(0.05,0,0,0.05,56.85,0)" xlink:href="#z"/></g></defs></g></svg>
