<svg xmlns="http://www.w3.org/2000/svg" xmlns:xlink="http://www.w3.org/1999/xlink" xmlns:lucid="lucid" width="1179" height="380"><g transform="translate(-301 -300)" lucid:page-tab-id="0_0"><path d="M680 330c0-5.52 4.48-10 10-10h400c5.52 0 10 4.48 10 10v80c0 5.52-4.48 10-10 10H690c-5.52 0-10-4.48-10-10z" stroke="#a9a9b3" stroke-width="2" fill-opacity="0"/><path d="M710 327.67h360v84.66H710z" stroke="#000" stroke-opacity="0" stroke-width="2" fill-opacity="0"/><use xlink:href="#a" transform="matrix(1,0,0,1,715,332.66666666666663) translate(75.79012345679011 24.888888888888893)"/><use xlink:href="#b" transform="matrix(1,0,0,1,715,332.66666666666663) translate(124.09876543209876 24.888888888888893)"/><use xlink:href="#c" transform="matrix(1,0,0,1,715,332.66666666666663) translate(210.34567901234567 24.888888888888893)"/><use xlink:href="#d" transform="matrix(1,0,0,1,715,332.66666666666663) translate(25.19135802469134 62.222222222222236)"/><use xlink:href="#e" transform="matrix(1,0,0,1,715,332.66666666666663) translate(82.14197530864196 62.222222222222236)"/><use xlink:href="#f" transform="matrix(1,0,0,1,715,332.66666666666663) translate(149.46296296296296 62.222222222222236)"/><use xlink:href="#g" transform="matrix(1,0,0,1,715,332.66666666666663) translate(176.2530864197531 62.222222222222236)"/><path d="M321 570c0-5.52 4.48-10 10-10h400c5.52 0 10 4.48 10 10v80c0 5.52-4.48 10-10 10H331c-5.52 0-10-4.48-10-10z" stroke="#a9a9b3" stroke-width="2" fill-opacity="0"/><path d="M351 567.67h360v84.66H351z" stroke="#000" stroke-opacity="0" stroke-width="2" fill-opacity="0"/><use xlink:href="#h" transform="matrix(1,0,0,1,356,572.6666666666666) translate(52.62962962962962 43.63888888888889)"/><use xlink:href="#i" transform="matrix(1,0,0,1,356,572.6666666666666) translate(138.79012345679013 43.63888888888889)"/><use xlink:href="#j" transform="matrix(1,0,0,1,356,572.6666666666666) translate(262.9753086419753 43.63888888888889)"/><path d="M1040 570c0-5.52 4.48-10 10-10h400c5.52 0 10 4.48 10 10v80c0 5.52-4.48 10-10 10h-400c-5.52 0-10-4.48-10-10z" stroke="#a9a9b3" stroke-width="2" fill-opacity="0"/><path d="M1070 567.67h360v84.66h-360z" stroke="#000" stroke-opacity="0" stroke-width="2" fill-opacity="0"/><use xlink:href="#k" transform="matrix(1,0,0,1,1075,572.6666666666666) translate(51.50617283950616 43.63888888888889)"/><use xlink:href="#l" transform="matrix(1,0,0,1,1075,572.6666666666666) translate(129.28395061728395 43.63888888888889)"/><use xlink:href="#m" transform="matrix(1,0,0,1,1075,572.6666666666666) translate(203.60493827160496 43.63888888888889)"/><path d="M889.07 421.36l-340.8 131" stroke="#a9a9b3" stroke-width="2" fill="none"/><path d="M889.4 422.3l-.5-1.3h3.9zM549 557.05l-14.98.8 11.65-9.46z" fill="#a9a9b3"/><path d="M550.43 557.97L531 559l15.1-12.25zm-13.4-1.3l10.54-.55-2.34-6.08z" fill="#a9a9b3"/><path d="M890.93 421.36l341.8 131.02" stroke="#a9a9b3" stroke-width="2" fill="none"/><path d="M890.6 422.3l-3.4-1.3h3.9zM1246.98 557.84l-14.98-.78 3.32-8.65z" fill="#a9a9b3"/><path d="M1250 559l-19.43-1 4.3-11.24zm-16.58-2.86l10.54.54-8.2-6.63z" fill="#a9a9b3"/><defs><path fill="#a9a9b3" d="M190 0L58-211 59 0H30v-248h39L202-35l-2-213h31V0h-41" id="n"/><path fill="#a9a9b3" d="M100-194c62-1 85 37 85 99 1 63-27 99-86 99S16-35 15-95c0-66 28-99 85-99zM99-20c44 1 53-31 53-75 0-43-8-75-51-75s-53 32-53 75 10 74 51 75" id="o"/><g id="a"><use transform="matrix(0.08641975308641976,0,0,0.08641975308641976,0,0)" xlink:href="#n"/><use transform="matrix(0.08641975308641976,0,0,0.08641975308641976,22.38271604938272,0)" xlink:href="#o"/></g><path fill="#a9a9b3" d="M194 0L95-120 63-95V0H30v-248h33v124l119-124h40L117-140 236 0h-42" id="p"/><path fill="#a9a9b3" d="M59-47c-2 24 18 29 38 22v24C64 9 27 4 27-40v-127H5v-23h24l9-43h21v43h35v23H59v120" id="q"/><path fill="#a9a9b3" d="M24 0v-261h32V0H24" id="r"/><path fill="#a9a9b3" d="M24-231v-30h32v30H24zM24 0v-190h32V0H24" id="s"/><path fill="#a9a9b3" d="M117-194c89-4 53 116 60 194h-32v-121c0-31-8-49-39-48C34-167 62-67 57 0H25l-1-190h30c1 10-1 24 2 32 11-22 29-35 61-36" id="t"/><g id="b"><use transform="matrix(0.08641975308641976,0,0,0.08641975308641976,0,0)" xlink:href="#p"/><use transform="matrix(0.08641975308641976,0,0,0.08641975308641976,20.740740740740744,0)" xlink:href="#o"/><use transform="matrix(0.08641975308641976,0,0,0.08641975308641976,38.0246913580247,0)" xlink:href="#q"/><use transform="matrix(0.08641975308641976,0,0,0.08641975308641976,46.66666666666667,0)" xlink:href="#r"/><use transform="matrix(0.08641975308641976,0,0,0.08641975308641976,53.49382716049383,0)" xlink:href="#s"/><use transform="matrix(0.08641975308641976,0,0,0.08641975308641976,60.320987654321,0)" xlink:href="#t"/></g><path fill="#a9a9b3" d="M185-189c-5-48-123-54-124 2 14 75 158 14 163 119 3 78-121 87-175 55-17-10-28-26-33-46l33-7c5 56 141 63 141-1 0-78-155-14-162-118-5-82 145-84 179-34 5 7 8 16 11 25" id="u"/><path fill="#a9a9b3" d="M30-248c118-7 216 8 213 122C240-48 200 0 122 0H30v-248zM63-27c89 8 146-16 146-99s-60-101-146-95v194" id="v"/><g id="c"><use transform="matrix(0.08641975308641976,0,0,0.08641975308641976,0,0)" xlink:href="#u"/><use transform="matrix(0.08641975308641976,0,0,0.08641975308641976,20.740740740740744,0)" xlink:href="#v"/><use transform="matrix(0.08641975308641976,0,0,0.08641975308641976,43.12345679012346,0)" xlink:href="#p"/></g><path fill="#a9a9b3" d="M24-231v-30h32v30H24zM-9 49c24 4 33-6 33-30v-209h32V24c2 40-23 58-65 49V49" id="w"/><path fill="#a9a9b3" d="M84 4C-5 8 30-112 23-190h32v120c0 31 7 50 39 49 72-2 45-101 50-169h31l1 190h-30c-1-10 1-25-2-33-11 22-28 36-60 37" id="x"/><path fill="#a9a9b3" d="M135-143c-3-34-86-38-87 0 15 53 115 12 119 90S17 21 10-45l28-5c4 36 97 45 98 0-10-56-113-15-118-90-4-57 82-63 122-42 12 7 21 19 24 35" id="y"/><g id="d"><use transform="matrix(0.08641975308641976,0,0,0.08641975308641976,0,0)" xlink:href="#w"/><use transform="matrix(0.08641975308641976,0,0,0.08641975308641976,6.8271604938271615,0)" xlink:href="#x"/><use transform="matrix(0.08641975308641976,0,0,0.08641975308641976,24.111111111111114,0)" xlink:href="#y"/><use transform="matrix(0.08641975308641976,0,0,0.08641975308641976,39.66666666666667,0)" xlink:href="#q"/></g><path fill="#a9a9b3" d="M153-248C145-148 188 4 80 4 36 3 13-21 6-62l32-5c4 25 16 42 43 43 27 0 39-20 39-49v-147H72v-28h81" id="z"/><g id="e"><use transform="matrix(0.08641975308641976,0,0,0.08641975308641976,0,0)" xlink:href="#z"/><use transform="matrix(0.08641975308641976,0,0,0.08641975308641976,15.555555555555557,0)" xlink:href="#v"/><use transform="matrix(0.08641975308641976,0,0,0.08641975308641976,37.93827160493828,0)" xlink:href="#p"/></g><path fill="#a9a9b3" d="M118-107v75H92v-75H18v-26h74v-75h26v75h74v26h-74" id="A"/><use transform="matrix(0.08641975308641976,0,0,0.08641975308641976,0,0)" xlink:href="#A" id="f"/><path fill="#a9a9b3" d="M100-194c63 0 86 42 84 106H49c0 40 14 67 53 68 26 1 43-12 49-29l28 8c-11 28-37 45-77 45C44 4 14-33 15-96c1-61 26-98 85-98zm52 81c6-60-76-77-97-28-3 7-6 17-6 28h103" id="B"/><path fill="#a9a9b3" d="M141 0L90-78 38 0H4l68-98-65-92h35l48 74 47-74h35l-64 92 68 98h-35" id="C"/><g id="g"><use transform="matrix(0.08641975308641976,0,0,0.08641975308641976,0,0)" xlink:href="#B"/><use transform="matrix(0.08641975308641976,0,0,0.08641975308641976,17.283950617283953,0)" xlink:href="#C"/><use transform="matrix(0.08641975308641976,0,0,0.08641975308641976,32.839506172839506,0)" xlink:href="#q"/><use transform="matrix(0.08641975308641976,0,0,0.08641975308641976,41.48148148148148,0)" xlink:href="#B"/><use transform="matrix(0.08641975308641976,0,0,0.08641975308641976,58.76543209876543,0)" xlink:href="#t"/><use transform="matrix(0.08641975308641976,0,0,0.08641975308641976,76.04938271604938,0)" xlink:href="#y"/><use transform="matrix(0.08641975308641976,0,0,0.08641975308641976,91.60493827160492,0)" xlink:href="#s"/><use transform="matrix(0.08641975308641976,0,0,0.08641975308641976,98.43209876543212,0)" xlink:href="#o"/><use transform="matrix(0.08641975308641976,0,0,0.08641975308641976,115.71604938271604,0)" xlink:href="#t"/><use transform="matrix(0.08641975308641976,0,0,0.08641975308641976,133,0)" xlink:href="#y"/></g><path fill="#a9a9b3" d="M210-169c-67 3-38 105-44 169h-31v-121c0-29-5-50-35-48C34-165 62-65 56 0H25l-1-190h30c1 10-1 24 2 32 10-44 99-50 107 0 11-21 27-35 58-36 85-2 47 119 55 194h-31v-121c0-29-5-49-35-48" id="D"/><path fill="#a9a9b3" d="M141-36C126-15 110 5 73 4 37 3 15-17 15-53c-1-64 63-63 125-63 3-35-9-54-41-54-24 1-41 7-42 31l-33-3c5-37 33-52 76-52 45 0 72 20 72 64v82c-1 20 7 32 28 27v20c-31 9-61-2-59-35zM48-53c0 20 12 33 32 33 41-3 63-29 60-74-43 2-92-5-92 41" id="E"/><g id="h"><use transform="matrix(0.08641975308641976,0,0,0.08641975308641976,0,0)" xlink:href="#u"/><use transform="matrix(0.08641975308641976,0,0,0.08641975308641976,20.740740740740744,0)" xlink:href="#D"/><use transform="matrix(0.08641975308641976,0,0,0.08641975308641976,46.580246913580254,0)" xlink:href="#E"/><use transform="matrix(0.08641975308641976,0,0,0.08641975308641976,63.8641975308642,0)" xlink:href="#r"/><use transform="matrix(0.08641975308641976,0,0,0.08641975308641976,70.69135802469137,0)" xlink:href="#r"/></g><path fill="#a9a9b3" d="M233-177c-1 41-23 64-60 70L243 0h-38l-65-103H63V0H30v-248c88 3 205-21 203 71zM63-129c60-2 137 13 137-47 0-61-80-42-137-45v92" id="F"/><g id="i"><use transform="matrix(0.08641975308641976,0,0,0.08641975308641976,0,0)" xlink:href="#F"/><use transform="matrix(0.08641975308641976,0,0,0.08641975308641976,22.38271604938272,0)" xlink:href="#x"/><use transform="matrix(0.08641975308641976,0,0,0.08641975308641976,39.66666666666667,0)" xlink:href="#t"/><use transform="matrix(0.08641975308641976,0,0,0.08641975308641976,56.95061728395062,0)" xlink:href="#q"/><use transform="matrix(0.08641975308641976,0,0,0.08641975308641976,65.5925925925926,0)" xlink:href="#s"/><use transform="matrix(0.08641975308641976,0,0,0.08641975308641976,72.41975308641976,0)" xlink:href="#D"/><use transform="matrix(0.08641975308641976,0,0,0.08641975308641976,98.25925925925927,0)" xlink:href="#B"/></g><path fill="#a9a9b3" d="M114-163C36-179 61-72 57 0H25l-1-190h30c1 12-1 29 2 39 6-27 23-49 58-41v29" id="G"/><g id="j"><use transform="matrix(0.08641975308641976,0,0,0.08641975308641976,0,0)" xlink:href="#w"/><use transform="matrix(0.08641975308641976,0,0,0.08641975308641976,6.8271604938271615,0)" xlink:href="#E"/><use transform="matrix(0.08641975308641976,0,0,0.08641975308641976,24.111111111111114,0)" xlink:href="#G"/></g><path fill="#a9a9b3" d="M30 0v-248h187v28H63v79h144v27H63v87h162V0H30" id="H"/><path fill="#a9a9b3" d="M179-190L93 31C79 59 56 82 12 73V49c39 6 53-20 64-50L1-190h34L92-34l54-156h33" id="I"/><g id="k"><use transform="matrix(0.08641975308641976,0,0,0.08641975308641976,0,0)" xlink:href="#H"/><use transform="matrix(0.08641975308641976,0,0,0.08641975308641976,20.740740740740744,0)" xlink:href="#E"/><use transform="matrix(0.08641975308641976,0,0,0.08641975308641976,38.0246913580247,0)" xlink:href="#y"/><use transform="matrix(0.08641975308641976,0,0,0.08641975308641976,53.580246913580254,0)" xlink:href="#I"/></g><path fill="#a9a9b3" d="M108 0H70L1-190h34L89-25l56-165h34" id="J"/><g id="l"><use transform="matrix(0.08641975308641976,0,0,0.08641975308641976,0,0)" xlink:href="#z"/><use transform="matrix(0.08641975308641976,0,0,0.08641975308641976,15.555555555555557,0)" xlink:href="#E"/><use transform="matrix(0.08641975308641976,0,0,0.08641975308641976,32.839506172839506,0)" xlink:href="#J"/><use transform="matrix(0.08641975308641976,0,0,0.08641975308641976,48.39506172839506,0)" xlink:href="#E"/></g><path fill="#a9a9b3" d="M115-194c55 1 70 41 70 98S169 2 115 4C84 4 66-9 55-30l1 105H24l-1-265h31l2 30c10-21 28-34 59-34zm-8 174c40 0 45-34 45-75s-6-73-45-74c-42 0-51 32-51 76 0 43 10 73 51 73" id="K"/><g id="m"><use transform="matrix(0.08641975308641976,0,0,0.08641975308641976,0,0)" xlink:href="#s"/><use transform="matrix(0.08641975308641976,0,0,0.08641975308641976,6.8271604938271615,0)" xlink:href="#t"/><use transform="matrix(0.08641975308641976,0,0,0.08641975308641976,24.111111111111114,0)" xlink:href="#q"/><use transform="matrix(0.08641975308641976,0,0,0.08641975308641976,32.75308641975309,0)" xlink:href="#B"/><use transform="matrix(0.08641975308641976,0,0,0.08641975308641976,50.037037037037045,0)" xlink:href="#G"/><use transform="matrix(0.08641975308641976,0,0,0.08641975308641976,60.32098765432099,0)" xlink:href="#o"/><use transform="matrix(0.08641975308641976,0,0,0.08641975308641976,77.60493827160494,0)" xlink:href="#K"/></g></defs></g></svg>
